{
  "accessors": [
    {
      "bufferView": 1,
      "componentType": 5126,
      "count": 1380,
      "max": [
        6.854000091552734,
        7.135000228881836,
        106.20999908447266
      ],
      "min": [
        -38.132999420166016,
        -39.005001068115234,
        23.11199951171875
      ],
      "type": "VEC3"
    },
    {
      "bufferView": 1,
      "byteOffset": 16560,
      "componentType": 5126,
      "count": 1380,
      "max": [
        0.9974607229232788,
        0.9706491827964783,
        1.0
      ],
      "min": [
        -0.9974607229232788,
        -0.9706491827964783,
        -1.0
      ],
      "type": "VEC3"
    },
    {
      "bufferView": 0,
      "componentType": 5125,
      "count": 8100,
      "type": "SCALAR"
    },
    {
      "bufferView": 1,
      "byteOffset": 33120,
      "componentType": 5126,
      "count": 184,
      "max": [
        -14.190999984741211,
        -16.551000595092773,
        30.2450008392334
      ],
      "min": [
        -24.801000595092773,
        -26.642000198364258,
        9.789999961853027
      ],
      "type": "VEC3"
    },
    {
      "bufferView": 1,
      "byteOffset": 35328,
      "componentType": 5126,
      "count": 184,
      "max": [
        1.0,
        0.9510560035705566,
        1.0
      ],
      "min": [
        -1.0,
        -0.9510560035705566,
        -1.0
      ],
      "type": "VEC3"
    },
    {
      "bufferView": 0,
      "byteOffset": 32400,
      "componentType": 5125,
      "count": 1080,
      "type": "SCALAR"
    }
  ],
  "asset": {
    "extras": {
      "author": "Rivas.Ariadna (https://sketchfab.com/Rivas.Ariadna)",
      "license": "CC-BY-4.0 (http://creativecommons.org/licenses/by/4.0/)",
      "source": "https://sketchfab.com/3d-models/water-bubbles-d0fe89284e974adfa81a7ea456f8559c",
      "title": "Water Bubbles"
    },
    "generator": "Sketchfab-12.68.0",
    "version": "2.0"
  },
  "bufferViews": [
    {
      "buffer": 0,
      "byteLength": 36720,
      "name": "floatBufferViews",
      "target": 34963
    },
    {
      "buffer": 0,
      "byteLength": 37536,
      "byteOffset": 36720,
      "byteStride": 12,
      "name": "floatBufferViews",
      "target": 34962
    }
  ],
  "buffers": [
    {
      "byteLength": 74256,
      "uri": "scene.bin"
    }
  ],
  "materials": [
    {
      "doubleSided": true,
      "name": "Glass_Sanding_6_48e937ec-a4a8-4a96-872d-3579cd4d2513",
      "pbrMetallicRoughness": {
        "metallicFactor": 0.0,
        "roughnessFactor": 0.6
      }
    },
    {
      "doubleSided": true,
      "name": "Glass_Sanding_63642e6b-1f12-4d32-ad36-bbff860194d4",
      "pbrMetallicRoughness": {
        "metallicFactor": 0.0,
        "roughnessFactor": 0.6
      }
    }
  ],
  "meshes": [
    {
      "name": "Object_0",
      "primitives": [
        {
          "attributes": {
            "NORMAL": 1,
            "POSITION": 0
          },
          "indices": 2,
          "material": 0,
          "mode": 4
        }
      ]
    },
    {
      "name": "Object_1",
      "primitives": [
        {
          "attributes": {
            "NORMAL": 4,
            "POSITION": 3
          },
          "indices": 5,
          "material": 1,
          "mode": 4
        }
      ]
    }
  ],
  "nodes": [
    {
      "children": [
        1
      ],
      "matrix": [
        1.0,
        0.0,
        0.0,
        0.0,
        0.0,
        2.220446049250313e-16,
        -1.0,
        0.0,
        0.0,
        1.0,
        2.220446049250313e-16,
        0.0,
        0.0,
        0.0,
        0.0,
        1.0
      ],
      "name": "Sketchfab_model"
    },
    {
      "children": [
        2,
        3
      ],
      "name": "1287bfc0f6f8415fb821f0c4a1375ba4.obj.cleaner.materialmerger.gles"
    },
    {
      "mesh": 0,
      "name": "Object_2"
    },
    {
      "mesh": 1,
      "name": "Object_3"
    }
  ],
  "scene": 0,
  "scenes": [
    {
      "name": "Sketchfab_Scene",
      "nodes": [
        0
      ]
    }
  ]
}
