{
  "accessors": [
    {
      "bufferView": 2,
      "componentType": 5126,
      "count": 2618,
      "max": [
        2.183985710144043,
        4.312385082244873,
        1.2713805437088013
      ],
      "min": [
        -1.0491626262664795,
        -5.226856708526611,
        -2.3831443786621094
      ],
      "type": "VEC3"
    },
    {
      "bufferView": 2,
      "byteOffset": 31416,
      "componentType": 5126,
      "count": 2618,
      "max": [
        0.9995546936988831,
        1.0,
        0.9999680519104004
      ],
      "min": [
        -0.9999467134475708,
        -1.0,
        -0.9998578429222107
      ],
      "type": "VEC3"
    },
    {
      "bufferView": 1,
      "componentType": 5126,
      "count": 2618,
      "max": [
        0.9936173558235168,
        0.9704621434211731
      ],
      "min": [
        0.023833632469177246,
        0.07408314943313599
      ],
      "type": "VEC2"
    },
    {
      "bufferView": 1,
      "byteOffset": 20944,
      "componentType": 5126,
      "count": 2618,
      "max": [
        0.9936173558235168,
        0.9704621434211731
      ],
      "min": [
        0.023833632469177246,
        0.07408314943313599
      ],
      "type": "VEC2"
    },
    {
      "bufferView": 0,
      "componentType": 5125,
      "count": 7470,
      "type": "SCALAR"
    }
  ],
  "asset": {
    "extras": {
      "author": "nolanfa (https://sketchfab.com/nolanfa)",
      "license": "CC-BY-4.0 (http://creativecommons.org/licenses/by/4.0/)",
      "source": "https://sketchfab.com/3d-models/diver-9ee9b8b722ed457da424869cd8d08b1a",
      "title": "Diver"
    },
    "generator": "Sketchfab-12.67.0",
    "version": "2.0"
  },
  "bufferViews": [
    {
      "buffer": 0,
      "byteLength": 29880,
      "name": "floatBufferViews",
      "target": 34963
    },
    {
      "buffer": 0,
      "byteLength": 41888,
      "byteOffset": 29880,
      "byteStride": 8,
      "name": "floatBufferViews",
      "target": 34962
    },
    {
      "buffer": 0,
      "byteLength": 62832,
      "byteOffset": 71768,
      "byteStride": 12,
      "name": "floatBufferViews",
      "target": 34962
    }
  ],
  "buffers": [
    {
      "byteLength": 134600,
      "uri": "scene.bin"
    }
  ],
  "extensionsRequired": [
    "KHR_materials_pbrSpecularGlossiness"
  ],
  "extensionsUsed": [
    "KHR_materials_pbrSpecularGlossiness"
  ],
  "images": [
    {
      "uri": "textures/lambert1_diffuse.png"
    }
  ],
  "materials": [
    {
      "doubleSided": true,
      "emissiveFactor": [
        1.0,
        1.0,
        1.0
      ],
      "emissiveTexture": {
        "index": 0
      },
      "extensions": {
        "KHR_materials_pbrSpecularGlossiness": {
          "diffuseFactor": [
            1.0,
            1.0,
            1.0,
            1.0
          ],
          "diffuseTexture": {
            "index": 0
          },
          "glossinessFactor": 0.0,
          "specularFactor": [
            0.0,
            0.0,
            0.0
          ]
        }
      },
      "name": "lambert1"
    }
  ],
  "meshes": [
    {
      "name": "pSphere21_lambert1_0",
      "primitives": [
        {
          "attributes": {
            "NORMAL": 1,
            "POSITION": 0,
            "TEXCOORD_0": 2,
            "TEXCOORD_1": 3
          },
          "indices": 4,
          "material": 0,
          "mode": 4
        }
      ]
    }
  ],
  "nodes": [
    {
      "children": [
        1
      ],
      "matrix": [
        0.1328565925359726,
        0.0,
        0.0,
        0.0,
        0.0,
        2.95000896013359e-17,
        -0.1328565925359726,
        0.0,
        0.0,
        0.1328565925359726,
        2.95000896013359e-17,
        0.0,
        0.0,
        0.0,
        0.0,
        1.0
      ],
      "name": "Sketchfab_model"
    },
    {
      "children": [
        2
      ],
      "matrix": [
        1.0,
        0.0,
        0.0,
        0.0,
        0.0,
        0.0,
        1.0,
        0.0,
        0.0,
        -1.0,
        0.0,
        0.0,
        0.0,
        0.0,
        0.0,
        1.0
      ],
      "name": "c8e1ae67db8142b993225bdcbe1e0093.fbx"
    },
    {
      "children": [
        3
      ],
      "name": "RootNode"
    },
    {
      "children": [
        4
      ],
      "name": "pSphere21"
    },
    {
      "mesh": 0,
      "name": "pSphere21_lambert1_0"
    }
  ],
  "samplers": [
    {
      "magFilter": 9729,
      "minFilter": 9987,
      "wrapS": 10497,
      "wrapT": 10497
    }
  ],
  "scene": 0,
  "scenes": [
    {
      "name": "Sketchfab_Scene",
      "nodes": [
        0
      ]
    }
  ],
  "textures": [
    {
      "sampler": 0,
      "source": 0
    }
  ]
}
